<!-- assets/tech-lines.svg | 霓虹科技線 + 技能格 + 左下社群徽章 + 動態UFO（無外部資產） -->
<svg xmlns="http://www.w3.org/2000/svg" width="360" height="154" viewBox="0 0 360 154">
  <defs>
    <!-- 背景：斜向菱格＋暗角＋掃描光 -->
    <pattern id="diaggrid" width="18" height="18" patternUnits="userSpaceOnUse" patternTransform="rotate(45)">
      <rect width="18" height="18" fill="#0d1117"/>
      <path d="M0 0H18M0 18H18M0 0V18M18 0V18" stroke="#101824" stroke-width="1"/>
      <path d="M9 0V18M0 9H18" stroke="#182234" stroke-width="0.6" opacity="0.9"/>
    </pattern>
    <radialGradient id="vignette" cx="50%" cy="50%" r="70%">
      <stop offset="0%" stop-color="#0d1117" stop-opacity="0"/>
      <stop offset="100%" stop-color="#0d1117" stop-opacity="0.35"/>
    </radialGradient>
    <linearGradient id="scan" x1="0" x2="1">
      <stop offset="0" stop-color="#fff" stop-opacity="0"/>
      <stop offset="0.5" stop-color="#fff" stop-opacity="0.08"/>
      <stop offset="1" stop-color="#fff" stop-opacity="0"/>
    </linearGradient>

    <!-- 霓虹線條 -->
    <linearGradient id="wireA" x1="0" y1="0" x2="1" y2="0">
      <stop offset="0%" stop-color="#00E5FF"/><stop offset="50%" stop-color="#7A77FF"/><stop offset="100%" stop-color="#FF6EC7"/>
    </linearGradient>
    <linearGradient id="wireB" x1="0" y1="0" x2="1" y2="0">
      <stop offset="0%" stop-color="#6EF9A5"/><stop offset="100%" stop-color="#00E5FF"/>
    </linearGradient>
    <filter id="glow" x="-50%" y="-50%" width="200%" height="200%">
      <feGaussianBlur in="SourceGraphic" stdDeviation="2" result="b1"/>
      <feGaussianBlur in="SourceGraphic" stdDeviation="4" result="b2"/>
      <feMerge><feMergeNode in="b2"/><feMergeNode in="b1"/><feMergeNode in="SourceGraphic"/></feMerge>
    </filter>
    <path id="d1" d="M-40,120 C40,60 130,40 210,20"/>
    <path id="d2" d="M-20,135 C70,105 150,95 240,70"/>
    <path id="d3" d="M10,110 C90,80 160,65 230,45"/>
    <radialGradient id="node" r="1"><stop offset="0" stop-color="#fff"/><stop offset="1" stop-color="#fff" stop-opacity="0"/></radialGradient>

    <!-- 卡片陰影 -->
    <filter id="drop" x="-50%" y="-50%" width="200%" height="200%">
      <feDropShadow dx="0" dy="2" stdDeviation="2" flood-color="#000" flood-opacity="0.35"/>
    </filter>

    <!-- ====== 技能圖示 Symbols ====== -->
    <!-- HTML -->
    <symbol id="ic-html" viewBox="0 0 32 32">
      <path d="M6 28L4 3H28L26 28L16 31L6 28Z" fill="#E44D26"/>
      <path d="M26 5H16V29.5L24 27L26 5Z" fill="#F16529"/>
      <path d="M9.5 17.5L8.5 8H24L23.5 11H11.5L12 14.5H23L22 24L16 26L10 24L9.5 19H12.5L13 21.5L16 22.5L19 21.5L19.5 17.5H9.5Z" fill="#fff"/>
    </symbol>
    <!-- JS -->
    <symbol id="ic-js" viewBox="0 0 512 512">
      <rect width="512" height="512" rx="76" fill="#f7df1e"/>
      <path d="M324 370c10 17 24 29 47 29c20 0 33-10 33 -24c0-16 -13 -22 -35 -32l-12-5c-35 -15 -58 -33 -58 -72c0-36 27 -64 70 -64c31 0 53 11 68 39l-37 24c-8-15 -17-21 -31-21c-14 0-23 9 -23 21c0 14 9 20 30 29l12 5c41 18 64 35 64 76c0 43-34 67 -80 67c-45 0-74 -21 -88 -49zm-170 4c8 13 14 25 31 25c16 0 26-6 26 -30V203h48v164c0 50-29 72 -72 72c-39 0-61 -20 -72 -44z" fill="#000"/>
    </symbol>
    <!-- CSS -->
    <symbol id="ic-css" viewBox="0 0 32 32">
      <path d="M6 28L4 3H28L26 28L16 31L6 28Z" fill="#1172B8"/>
      <path d="M26 5H16V29.5L24 27L26 5Z" fill="#33AADD"/>
      <path d="M19.5 17.5H9.5L9 14L17 11.5H9L8.5 8.5H24L23.5 12L17 14.5H23L22 24L16 26L10 24L9.5 19H12.5L13 21.5L16 22.5L19 21.5L19.5 17.5Z" fill="#fff"/>
    </symbol>
    <!-- Vue（簡化 V） -->
    <symbol id="ic-vue" viewBox="0 0 256 221">
      <polygon points="0,0 128,221 256,0 204,0 128,127 52,0" fill="#41B883"/>
      <polygon points="52,0 128,127 204,0 170,0 128,68 86,0" fill="#34495E"/>
    </symbol>

    <!-- Python（雙蛇） -->
    <linearGradient id="pyG0" x1="12.48" y1="2" x2="12.48" y2="22.74"><stop stop-color="#327EBD"/><stop offset="1" stop-color="#1565A7"/></linearGradient>
    <linearGradient id="pyG1" x1="19.519" y1="9.259" x2="19.519" y2="30"><stop stop-color="#FFDA4B"/><stop offset="1" stop-color="#F9C600"/></linearGradient>
    <symbol id="ic-python" viewBox="0 0 32 32">
      <path fill-rule="evenodd" clip-rule="evenodd" d="M13.0164 2C10.8193 2 9.03825 3.72453 9.03825 5.85185V8.51852H15.9235V9.25926H5.97814C3.78107 9.25926 2 10.9838 2 13.1111V18.8889C2 21.0162 3.78107 22.7407 5.97814 22.7407H8.27322V19.4815C8.27322 17.3542 10.0543 15.6296 12.2514 15.6296H19.5956C21.4547 15.6296 22.9617 14.1704 22.9617 12.3704V5.85185C22.9617 3.72453 21.1807 2 18.9836 2H13.0164Z" fill="url(#pyG0)"/>
      <path fill-rule="evenodd" clip-rule="evenodd" d="M18.9834 30C21.1805 30 22.9616 28.2755 22.9616 26.1482V23.4815H16.0763V22.7408H26.0217C28.2188 22.7408 29.9998 21.0162 29.9998 18.8889V13.1111C29.9998 10.9838 28.2188 9.25928 26.0217 9.25928H23.7266V12.5185C23.7266 14.6459 21.9455 16.3704 19.7485 16.3704H12.4042C10.5451 16.3704 9.03809 17.8296 9.03809 19.6296V26.1482C9.03809 28.2755 10.8192 30 13.0162 30H18.9834Z" fill="url(#pyG1)"/>
    </symbol>

    <!-- Jupyter（完整版） -->
    <symbol id="ic-jupyter" viewBox="-22 0 300 300">
      <!-- 省略註解：此處為你提供的完整 Jupyter 向量路徑 -->
      <g>
        <path d="M10.5838307,156.409656 L10.5838307,156.196646 L10.5838307,123.657627 L17.7200527,123.657627 L17.7200527,158.912657 C18.0516208,161.753926 17.8075656,164.63288 17.0023629,167.377784 C16.19722,170.122687 14.8474392,172.677251 13.0335946,174.88924 C9.6624625,177.797086 5.34298451,179.369568 0.891381719,179.309391 L0.145805038,173.983903 C3.01718628,173.985518 5.78730255,172.922981 7.92105685,171.001585 C9.83826599,168.76489 10.5838307,165.729334 10.5838307,156.409656 Z M63.8037763,152.209035 C63.8037763,156.203166 63.8037763,159.771277 64.1232613,162.860071 L57.7859014,162.860071 L57.3598815,156.522711 C56.0343268,158.765028 54.1386519,160.616318 51.8656486,161.888456 C49.5925854,163.160593 47.0232464,163.808237 44.4187946,163.765408 C38.2412071,163.765408 30.8919752,160.410366 30.8919752,146.723715 L30.8919752,123.983721 L38.0281972,123.983721 L38.0281972,145.285823 C38.0281972,152.688352 40.3181887,157.641058 46.7620834,157.641058 C48.0878176,157.655354 49.4030239,157.404719 50.6306575,156.903927 C51.8582911,156.403136 52.9735276,155.662296 53.9110465,154.724777 C54.8485056,153.787318 55.5894046,152.672022 56.0901963,151.444448 C56.5909282,150.216815 56.8415633,148.901549 56.8273268,147.575814 L56.8273268,123.717444 L63.9634889,123.717444 L63.9634889,151.996025 L63.8037763,152.209035 Z M77.330762,136.653806 C77.330762,131.70104 77.330762,127.653648 77.0112304,123.979032 L83.4018876,123.979032 L83.7213726,130.635931 C85.1452074,128.23088 87.1949721,126.257257 89.6521533,124.925482 C92.1093944,123.593709 94.8819333,122.953703 97.6742718,123.073695 C107.153723,123.073695 114.289945,131.008713 114.289945,142.831393 C114.289945,156.784292 105.715831,163.707504 96.4493898,163.707504 C94.0776877,163.813321 91.7187865,163.305232 89.6009496,162.232346 C87.4831127,161.159401 85.6780613,159.558028 84.3604623,157.583154 L84.3604623,178.885226 L77.330762,178.885226 L77.330762,136.813578 L77.330762,136.653806 Z M84.3604623,147.038594 C84.3797833,148.004885 84.4867369,148.967408 84.6800071,149.914378 C85.2842232,152.279021 86.6597255,154.374666 88.5887785,155.869683 C90.5178913,157.364761 92.8904309,158.173852 95.3310427,158.168947 C102.840047,158.168947 107.260258,152.044597 107.260258,143.150938 C107.260258,135.375686 103.106354,128.718758 95.59735,128.718758 C92.6257387,128.962101 89.844945,130.280974 87.7762781,132.428062 C85.7076111,134.575149 84.4931374,137.403079 84.3604623,140.381689 L84.3604623,147.038594 Z M127.004503,123.94359 L135.578617,146.896647 C136.483954,149.452886 137.442529,152.54168 138.081618,154.831671 C138.827183,152.488442 139.625985,149.506124 140.58462,146.736875 L148.359872,123.94359 L155.868876,123.94359 L145.21784,151.636343 C139.892293,164.950152 136.643726,171.820127 131.744199,175.97403 C129.27643,178.228071 126.267791,179.805756 123.010354,180.553953 L121.252929,174.589376 C123.530581,173.840999 125.645092,172.666304 127.48382,171.127799 C130.081872,169.010501 132.14366,166.310102 133.501635,163.246013 C133.792288,162.715372 133.990404,162.139031 134.087428,161.541814 C134.026892,160.899135 133.865146,160.270094 133.60817,159.677902 L119.122716,123.837079 L126.897968,123.837079 L127.004503,123.94359 Z M174.813541,112.770851 L174.813541,123.954441 L185.038557,123.954441 L185.038557,129.279989 L174.813541,129.279989 L174.813541,150.262575 C174.813541,155.055568 176.198196,157.824817 180.139089,157.824817 C181.538758,157.847727 182.935316,157.686579 184.292992,157.345559 L184.612537,162.671047 C182.57671,163.376355 180.428486,163.701283 178.275118,163.629682 C176.849069,163.718929 175.420569,163.498622 174.087657,162.983833 C172.754744,162.469044 171.549004,161.671976 170.553103,160.647363 C168.383883,157.745977 167.394359,154.130491 167.783854,150.528882 L167.783854,129.226751 L161.712742,129.226751 L161.712742,123.901204 L167.890329,123.901204 L167.890329,114.421764 L174.813541,112.770851 Z M198.184399,144.647511 C198.03988,146.453639 198.289199,148.269577 198.915189,149.969888 C199.541179,151.670199 200.528884,153.214267 201.810114,154.495437 C203.091285,155.776667 204.635352,156.764373 206.335664,157.390363 C208.035975,158.016352 209.851913,158.265672 211.658041,158.121153 C215.311153,158.202863 218.940457,157.513288 222.309077,156.097409 L223.533958,161.422956 C219.400274,163.12572 214.955358,163.942168 210.486396,163.819423 C207.881107,163.997798 205.268101,163.61054 202.826592,162.684147 C200.385023,161.757814 198.172795,160.3143 196.341489,158.452721 C194.51022,156.591082 193.103284,154.355345 192.217196,151.898941 C191.331104,149.442478 190.986827,146.82349 191.207978,144.221491 C191.207978,132.505346 198.184399,123.238905 209.581059,123.238905 C222.362314,123.238905 225.557643,134.422495 225.557643,141.558717 C225.625954,142.658281 225.625954,143.761016 225.557643,144.860581 L198.024687,144.860581 L198.184399,144.647511 Z M219.06051,139.322023 C219.266043,137.898188 219.163995,136.446897 218.761184,135.065892 C218.358433,133.684886 217.664311,132.406228 216.725656,131.316115 C215.786941,130.226062 214.625525,129.349856 213.31959,128.746561 C212.013656,128.143278 210.59353,127.826939 209.155039,127.818864 C206.228949,128.030665 203.487515,129.327603 201.467959,131.455549 C199.448402,133.583436 198.296377,136.388874 198.237697,139.322023 L219.06051,139.322023 Z M236.385366,136.053478 C236.385366,131.473555 236.385366,127.532637 236.065834,123.911277 L242.456492,123.911277 L242.456492,131.526792 L242.775977,131.526792 C243.446769,129.176325 244.83268,127.093027 246.741335,125.566097 C248.64999,124.039161 250.986699,123.144369 253.427072,123.005938 C254.098762,122.917777 254.779066,122.917777 255.450756,123.005938 L255.450756,129.66288 C254.63688,129.568608 253.814868,129.568608 253.000992,129.66288 C250.58353,129.756495 248.282771,130.726973 246.528505,132.393068 C244.774238,134.059104 243.686458,136.306745 243.468304,138.716252 C243.269171,139.805946 243.162278,140.910475 243.148819,142.018055 L243.148819,162.734394 L236.11909,162.734394 L236.11909,136.106715 L236.385366,136.053478 Z" fill="#4E4E4E"/>
        <path d="M233.257943,16.9621357 C233.476636,20.5398773 232.625434,24.1017075 230.812666,27.1939108 C228.999898,30.286174 226.307754,32.7687777 223.079047,34.3255867 C219.85034,35.8823358 216.231324,36.4427655 212.683013,35.9355136 C209.134702,35.4282017 205.817704,33.8761781 203.154559,31.4770796 C200.491421,29.0780409 198.602703,25.9404959 197.729013,22.4642047 C196.855323,18.9879135 197.036209,15.330196 198.248625,11.9570899 C199.461041,8.5839838 201.650109,5.64808944 204.536953,3.52346926 C207.423803,1.39884909 210.877782,0.181657262 214.458814,0.0269503701 C216.806708,-0.10224713 219.156996,0.233972409 221.374429,1.01627461 C223.591922,1.79857323 225.632893,3.01152758 227.379981,4.58537259 C229.12701,6.15922358 230.54576,8.06291398 231.554522,10.1869719 C232.563283,12.3110298 233.142196,14.6135829 233.257943,16.9621357 Z" fill="#767677"/>
        <path d="M127.952969,225.540984 C80.0236372,225.540984 37.8984531,208.339518 16.1170646,182.936721 C24.5683135,205.78944 39.8176362,225.504615 59.8124569,239.428562 C79.8070981,253.352629 103.588124,260.816651 127.952969,260.816651 C152.318411,260.816651 176.098839,253.352629 196.094019,239.428562 C216.0886,225.504615 231.337863,205.78944 239.789471,182.936721 C218.061379,208.339518 176.095848,225.540984 127.952969,225.540984 Z" fill="#F37726"/>
        <path d="M127.952969,60.3543133 C175.882898,60.3543133 218.008142,77.5557785 239.789471,102.958396 C231.337863,80.1058563 216.0886,60.3906823 196.094019,46.4667348 C176.098839,32.5427873 152.318411,25.0784666 127.952969,25.0784666 C103.588124,25.0784666 79.8070981,32.5427873 59.8124569,46.4667348 C39.8176362,60.3906823 24.5683135,80.1058563 16.1170646,102.958396 C37.8984531,77.502541 79.8106871,60.3543133 127.952969,60.3543133 Z" fill="#F37726"/>
        <path d="M61.9716874,274.975202 C62.2528294,279.48161 61.186045,283.969713 58.9072992,287.867658 C56.6284936,291.765602 53.2409116,294.896926 49.1761363,296.862707 C45.1113611,298.828488 40.5533909,299.539717 36.0829934,298.905772 C31.6125362,298.271767 27.4320141,296.321359 24.0740419,293.30297 C20.7160636,290.284582 18.3326671,286.334835 17.2274978,281.957035 C16.1223339,277.579176 16.3454363,272.971497 17.868382,268.720869 C19.3913284,264.470301 22.1451683,260.769335 25.7790187,258.089483 C29.4129289,255.40962 33.7623156,253.872201 38.2730898,253.673106 C41.2280121,253.515051 44.1851476,253.940738 46.9755719,254.925846 C49.7659364,255.910962 52.3349165,257.436187 54.5356604,259.414404 C56.7364042,261.392633 58.5259031,263.785032 59.8017495,266.455044 C61.0776558,269.124996 61.8150255,272.02022 61.9716874,274.975202 Z" fill="#9E9E9E"/>
        <path d="M21.5641016,54.5650606 C18.9814831,54.6363631 16.4354131,53.9424806 14.2460944,52.570687 C12.0567996,51.1988336 10.3219858,49.2102622 9.25983722,46.8551295 C8.19768984,44.499937 7.85562972,41.8832824 8.276674,39.3342215 C8.69771827,36.7851606 9.86306631,34.4174662 11.6261678,32.5289814 C13.3892752,30.6404727 15.6714246,29.3154324 18.1856119,28.7204982 C20.6997394,28.1255646 23.3336813,28.2873008 25.7562282,29.1853653 C28.1787154,30.0834346 30.2815979,31.6777312 31.800363,33.767765 C33.3191879,35.8578106 34.1861222,38.3502842 34.2921188,40.9317063 C34.3930308,44.4222341 33.113057,47.8117302 30.7300493,50.3642007 C28.3470417,52.916731 25.0533134,54.4262842 21.5641016,54.5650606 Z" fill="#616262"/>
      </g>
    </symbol>

    <!-- PyTorch（簡化） -->
    <symbol id="ic-pytorch" viewBox="0 0 64 64">
      <path d="M32 8V18L22 28c-8 8-8 22 0 30s22 8 30 0s8-22 0-30" fill="none" stroke="#EE4C2C" stroke-width="6" stroke-linecap="round" stroke-linejoin="round"/>
      <circle cx="46" cy="18" r="3.5" fill="#EE4C2C"/>
    </symbol>

    <!-- scikit-learn（簡化） -->
    <symbol id="ic-sklearn" viewBox="0 0 64 64">
      <ellipse cx="44" cy="36" rx="18" ry="14" fill="#f89939"/>
      <ellipse cx="20" cy="36" rx="12" ry="10" fill="#3499cd"/>
    </symbol>

    <!-- NumPy（使用你提供的圖示） -->
    <symbol id="ic-numpy" viewBox="-9 0 274 274">
<g> <path d="M191.54779,186.292389 L191.607285,246.81213 L137.903038,273.611369 L137.903038,213.11807 L191.54779,186.292389 Z M256.000818,153.946885 L256.000818,214.678164 L210.196199,237.537504 L210.163146,177.083869 L256.000818,153.946885 Z M191.468463,105.286501 L191.527958,165.171627 L137.903038,191.818823 L137.903038,131.913865 L191.468463,105.286501 Z M256.000818,73.2054191 L256.000818,132.713743 L210.149925,156.022603 L210.110262,96.0184858 L256.000818,73.2054191 Z M129.738988,66.1651652 L177.67221,90.3598405 L127.940914,115.334563 L80.9133402,91.7150067 L129.738988,66.1651652 Z M63.0648093,32.5107686 L108.783491,55.588258 L59.8454631,81.1314889 L12.8906057,57.5515964 L63.0648093,32.5107686 Z M193.755719,32.8611286 L242.997833,57.5515964 L198.958235,79.6705536 L150.925855,55.4428255 L193.755719,32.8611286 Z M128.231779,3.55271368e-15 L172.562241,22.2247263 L130.056295,44.9188028 L84.3772773,21.8809768 L128.231779,3.55271368e-15 Z" fill="#4DABCF"> </path> <path d="M118.943932,131.913865 L82.7709095,113.728195 L82.7709095,192.334447 C82.7709095,192.334447 38.5329951,98.2065835 34.4344436,89.7516683 C33.9055982,88.6609247 31.7307216,87.4644121 31.175434,87.1735472 C23.2427536,83.0088899 0,71.2354701 0,71.2354701 L0,210.110262 L32.1537979,227.297736 L32.1537979,154.7071 C32.1537979,154.7071 75.9223621,238.813344 76.3652701,239.732213 C76.8081781,240.651081 81.2042052,249.515852 85.8977077,252.629429 C92.1513041,256.767644 118.950543,272.884206 118.950543,272.884206 L118.943932,131.913865 Z" fill="#4D77CF"> </path> </g>
    </symbol>

    <!-- UFO（你提供的圖示） -->
    <symbol id="ic-ufo" viewBox="0 0 24 24">
      <path fill-rule="evenodd" clip-rule="evenodd" d="M10.8263 4.50335C8.62152 3.37843 6.70662 3.1509 5.75851 4.09901C4.1286 5.72892 5.97312 10.216 9.87836 14.1213C13.7836 18.0265 18.2707 19.8711 19.9006 18.2411C20.8487 17.2931 20.6213 15.3784 19.4965 13.1738C19.2935 13.2091 19.0705 13.2134 18.8298 13.1702C17.8847 13.0005 16.3948 12.2741 14.0604 9.93969C11.726 7.60532 10.9996 6.11537 10.8299 5.17028C10.7867 4.9295 10.791 4.70642 10.8263 4.50335ZM12.7069 12.7073C12.3164 13.0978 11.6832 13.0978 11.2927 12.7073C10.9022 12.3167 10.9022 11.6836 11.2927 11.293C11.6832 10.9025 12.3164 10.9025 12.7069 11.293C13.0975 11.6836 13.0975 12.3167 12.7069 12.7073ZM8.46411 8.46409C8.85463 8.85462 9.4878 8.85462 9.87832 8.46409C10.2688 8.07357 10.2688 7.4404 9.87832 7.04988C9.4878 6.65936 8.85463 6.65936 8.46411 7.04988C8.07358 7.4404 8.07358 8.07357 8.46411 8.46409ZM16.9496 15.5354C16.5591 15.9259 15.9259 15.9259 15.5354 15.5354C15.1449 15.1449 15.1449 14.5117 15.5354 14.1212C15.9259 13.7306 16.5591 13.7306 16.9496 14.1212C17.3401 14.5117 17.3401 15.1449 16.9496 15.5354Z" fill="#9aa4c7"/>
      <path d="M8.28739 16.7731C8.58029 16.4802 8.58029 16.0053 8.28739 15.7124C7.9945 15.4195 7.51963 15.4195 7.22673 15.7124L3.10541 19.8337C2.81252 20.1266 2.81252 20.6015 3.10541 20.8944C3.39831 21.1873 3.87318 21.1873 4.16607 20.8944L8.28739 16.7731Z" fill="#9aa4c7"/>
      <g opacity="0.5">
        <path d="M12.302 4.78957C14.1299 3.63258 16.5783 3.85088 18.172 5.44456L18.5556 5.82815C20.1494 7.42193 20.3676 9.87035 19.2104 11.6982C19.1728 11.702 19.1343 11.7008 19.0951 11.6938C18.5986 11.6046 17.3768 11.1346 15.1212 8.87899C12.8657 6.62343 12.3956 5.40159 12.3065 4.90513C12.2994 4.86583 12.2982 4.82723 12.302 4.78957Z" fill="#9aa4c7"/>
        <path d="M4.80145 11.7688C5.06423 11.4486 5.01769 10.976 4.69751 10.7132C4.37732 10.4504 3.90473 10.497 3.64195 10.8172L1.42027 13.5242C1.15749 13.8444 1.20403 14.317 1.52422 14.5797C1.8444 14.8425 2.31699 14.796 2.57977 14.4758L4.80145 11.7688Z" fill="#9aa4c7"/>
        <path d="M13.2868 19.3025C13.5495 19.6227 13.5029 20.0953 13.1827 20.358L10.4755 22.5795C10.1552 22.8422 9.68266 22.7956 9.41991 22.4754C9.15716 22.1552 9.20375 21.6826 9.52396 21.4199L12.2312 19.1984C12.5514 18.9357 13.024 18.9823 13.2868 19.3025Z" fill="#9aa4c7"/>
      </g>
    </symbol>
  </defs>

  <!-- 背景層 -->
  <rect width="360" height="154" fill="url(#diaggrid)"/>
  <rect width="360" height="154" fill="url(#vignette)"/>
  <rect y="0" width="80" height="154" fill="url(#scan)" opacity="0.85">
    <animate attributeName="x" values="-120; 420" dur="7.5s" repeatCount="indefinite"/>
  </rect>

  <!-- 霓虹線 -->
  <g fill="none" stroke-linecap="round" filter="url(#glow)">
    <use href="#d1" stroke="url(#wireA)" stroke-width="2.2">
      <animate attributeName="stroke-dasharray" values="0 500;60 440;0 500" dur="4.6s" repeatCount="indefinite"/>
      <animate attributeName="stroke-dashoffset" values="0;-160" dur="4.6s" repeatCount="indefinite"/>
    </use>
    <use href="#d2" stroke="url(#wireB)" stroke-width="2" opacity="0.9">
      <animate attributeName="stroke-dasharray" values="0 520;48 472;0 520" dur="3.8s" repeatCount="indefinite"/>
      <animate attributeName="stroke-dashoffset" values="0;-190" dur="3.8s" repeatCount="indefinite"/>
    </use>
    <use href="#d3" stroke="url(#wireA)" stroke-width="1.8" opacity="0.75">
      <animate attributeName="stroke-dasharray" values="0 520;36 484;0 520" dur="5.6s" repeatCount="indefinite"/>
      <animate attributeName="stroke-dashoffset" values="0;-220" dur="5.6s" repeatCount="indefinite"/>
    </use>
  </g>

  <!-- 動態 UFO（往中間，輕微漂浮） -->
  <g>
    <animateTransform attributeName="transform" type="translate"
      values="46,12; 62,18; 46,12" dur="6s" repeatCount="indefinite"/>
    <use href="#ic-ufo" width="22" height="22" opacity="0.9"/>
  </g>

  <!-- 左下社群徽章：縮短總寬避免碰到技能區（每顆寬 86，間距 10） -->
  <g transform="translate(8,118)" font-family="JetBrains Mono, ui-monospace, Consolas, monospace" font-size="8" font-weight="700">
    <!-- Instagram（更接近官方相機圖示） -->
    <g>
      <rect width="86" height="22" rx="10" fill="#E4405F" stroke="#b63049"/>
      <!-- 相機 -->
      <rect x="12" y="4" width="14" height="14" rx="3.2" fill="none" stroke="#fff" stroke-width="1.8"/>
      <circle cx="19" cy="11" r="3.2" fill="none" stroke="#fff" stroke-width="1.8"/>
      <circle cx="23.5" cy="7.2" r="1.2" fill="#fff"/>
      <text x="31" y="14" fill="#fff" letter-spacing="1">INSTAGRAM</text>
    </g>
    <!-- Gmail（信封＋紅色 M） -->
    <g transform="translate(96,0)">
      <rect width="86" height="22" rx="10" fill="#D14836" stroke="#a93a2b"/>
      <rect x="12" y="5.5" width="18" height="11" rx="2" fill="#fff"/>
      <path d="M12 7 L21 13 L30 7" fill="none" stroke="#D14836" stroke-width="2.4" stroke-linecap="round" stroke-linejoin="round"/>
      <path d="M12 7 L21 13 L30 7 V16 H12 Z" fill="none"/>
      <text x="40" y="14" fill="#fff" letter-spacing="1">GMAIL</text>
    </g>
    <!-- LinkedIn（寬度同上，與技能區保持 >6px 間距） -->
    <g transform="translate(192,0)">
      <rect width="86" height="22" rx="10" fill="#0077B5" stroke="#046399"/>
      <rect x="14" y="6.5" width="9" height="9" rx="1.8" fill="#fff"/>
      <text x="34" y="14" fill="#fff" letter-spacing="1">LINKEDIN</text>
    </g>
  </g>

  <!-- 右側技能格（2×5） -->
  <!-- 位置：右列 x=330；左列 x=300；列高 y=4/34/64/94/124；每格 26px -->
  <g filter="url(#drop)">
    <!-- 左列：Python / Jupyter / PyTorch / scikit-learn / NumPy -->
    <g transform="translate(300,4)"><rect width="26" height="26" rx="7" fill="#121a24" stroke="#233043"/><use href="#ic-python" x="3" y="3" width="20" height="20"/></g>
    <g transform="translate(300,34)"><rect width="26" height="26" rx="7" fill="#121a24" stroke="#233043"/><use href="#ic-jupyter" x="3" y="3" width="20" height="20"/></g>
    <g transform="translate(300,64)"><rect width="26" height="26" rx="7" fill="#121a24" stroke="#233043"/><use href="#ic-pytorch" x="1" y="-3" width="20" height="29"/></g>
    <g transform="translate(300,94)"><rect width="26" height="26" rx="7" fill="#121a24" stroke="#233043"/><use href="#ic-sklearn" x="3" y="3" width="20" height="20"/></g>
    <g transform="translate(300,124)"><rect width="26" height="26" rx="7" fill="#121a24" stroke="#233043"/><use href="#ic-numpy" x="3" y="3" width="20" height="20"/></g>

    <!-- 右列：HTML / JS / CSS / Vue / 空白 -->
    <g transform="translate(330,4)"><rect width="26" height="26" rx="7" fill="#121a24" stroke="#233043"/><use href="#ic-html" x="3" y="3" width="20" height="20"/></g>
    <g transform="translate(330,34)"><rect width="26" height="26" rx="7" fill="#121a24" stroke="#233043"/><use href="#ic-js" x="3" y="3" width="20" height="20"/></g>
    <g transform="translate(330,64)"><rect width="26" height="26" rx="7" fill="#121a24" stroke="#233043"/><use href="#ic-css" x="3" y="3" width="20" height="20"/></g>
    <g transform="translate(330,94)"><rect width="26" height="26" rx="7" fill="#121a24" stroke="#233043"/><use href="#ic-vue" x="3" y="3" width="20" height="20"/></g>
    <g transform="translate(330,124)"><rect width="26" height="26" rx="7" fill="#121a24" stroke="#233043"/></g>
  </g>
</svg>
